# xmcd
#
# Track frame offsets:
#	150
#	18345
#	48477
#
# Disc length: 1057 seconds
# Revision: 0
# Processed by: cddbd v1.5.2PL0 Copyright (c) Steve Scherf et al.
# Submitted via: dBpowerAMP V12.0
#
DISCID=1c041f03
DTITLE=Innocence - Let's Push It
DYEAR=1990
DGENRE=House
TTITLE0=Let’s Push It [7” Mix]
TTITLE1=Let’s Push It [Big Beat Mix]
TTITLE2=Silent Voice [Sax Urbana]
EXTD=
EXTT0=
EXTT1=
EXTT2=
PLAYORDER=
